<?xml version="1.0"?><svg width="640" height="480" xmlns="http://www.w3.org/2000/svg">
 <title>Green Graduation Cap blue tassel</title>
 <metadata id="metadata4">image/svg+xmlChristoph Brill</metadata>
 <g>
  <title>Layer 1</title>
  <path stroke="#000000" fill="#024930" fill-rule="evenodd" stroke-width="4.253933" stroke-linecap="round" stroke-linejoin="round" stroke-miterlimit="4" id="path1062" d="m83.777924,322.279907c176.366058,-4.354736 248.042877,-85.903778 393.557587,-76.751892c27.585327,1.734924 123.319336,47.194092 119.210327,26.128296c-39.294006,-201.450714 -136.084869,-205.216064 -192.696198,-212.29245c-95.25943,89.271698 -285.234009,-46.813221 -320.071716,262.916046z"/>
  <path stroke="#000000" fill="#024930" fill-rule="evenodd" stroke-width="4.253933" stroke-linecap="round" stroke-linejoin="round" stroke-miterlimit="4" id="path1061" d="m2.12696,96.134491l406.621758,72.722626l293.943359,-99.328453l-354.365082,-67.401454l-346.200036,94.007281z"/>
  <path fill="#ffffff" fill-rule="evenodd" stroke="#000000" stroke-width="4.253933" stroke-linecap="round" stroke-linejoin="round" stroke-miterlimit="4" id="path4179" d="m348.26825,79.557007c57.351044,20.207581 153.592926,39.917236 163.970032,50.230286c14.06897,13.981934 14.818909,79.29068 5.773621,174.362488l-25.473846,68.019409c24.009918,25.166077 59.859283,18.48822 74.47934,-2.88678l-22.44696,-64.555237c10.5849,-57.735962 8.473999,-168.32489 -2.88678,-183.600281c-18.455627,-24.814941 -116.241669,-40.030243 -174.362518,-60.045383c-9.045319,2.69434 -10.007568,15.781162 -19.052887,18.475498z"/>
  <path fill="#ffffff" fill-rule="evenodd" stroke="#000000" stroke-width="2.835955" stroke-linecap="round" stroke-linejoin="round" stroke-miterlimit="4" id="path3557" d="m324.647003,58.642269c14.928162,-26.004478 53.639648,-16.847099 61.163208,-6.019798c10.204407,14.685421 -18.975586,1.203579 -35.967712,24.308956c-11.619202,15.7994 -34.11087,-2.758789 -25.195496,-18.289158z"/>
  <path stroke="#000000" fill="#ffffff" fill-rule="evenodd" stroke-width="2.835955" stroke-linecap="round" stroke-linejoin="round" stroke-miterlimit="4" id="path4812" d="m514.894897,269.206787c-13.608459,7.620758 -14.152802,24.631348 -5.715546,35.109924l44.499725,3.674255c12.383728,-7.076416 12.111572,-28.033478 2.857788,-34.70163l-41.641968,-4.08255z"/>
 </g>
</svg>